<svg width="48" height="48" viewBox="0 0 48 48" fill="none" xmlns="http://www.w3.org/2000/svg">
<g clip-path="url(#clip0_40_412)">
<path d="M24 28.0006C23.76 28.0006 0 27.7826 0 20.0006C0 17.7106 2.41 15.7226 6.972 14.2506C7.496 14.0786 8.06 14.3706 8.23 14.8946C8.4 15.4186 8.114 15.9826 7.586 16.1526C3.466 17.4826 2 19.0126 2 20.0006C2 23.7186 14.814 26.0006 24 26.0006C31.896 26.0006 46 23.9966 46 20.0006C46 18.7606 44.012 17.3506 40.682 16.2286C40.158 16.0526 39.878 15.4846 40.054 14.9626C40.23 14.4406 40.8 14.1546 41.32 14.3346C46.842 16.1926 48 18.4426 48 20.0006C48 27.7826 24.24 28.0006 24 28.0006Z" fill="white"/>
<path d="M24 48C12.366 48 0 45.196 0 40V20C0 19.448 0.448 19 1 19C1.552 19 2 19.448 2 20V40C2 42.506 10.37 46 24 46C37.63 46 46 42.506 46 40V20C46 19.448 46.448 19 47 19C47.552 19 48 19.448 48 20V40C48 45.196 35.634 48 24 48Z" fill="white"/>
<path d="M7.21995 45.7807C6.96195 45.7807 6.70595 45.6827 6.50995 45.4847C6.12195 45.0927 6.12595 44.4587 6.51595 44.0707L13.474 37.1707C14.526 36.1207 16.174 36.1227 17.226 37.1727L21.21 40.9767C21.362 41.1287 21.55 41.2187 21.674 41.1987C21.846 41.1967 22.014 41.1147 22.162 40.9627L28.056 34.8447C29.128 33.7747 30.714 33.7207 31.764 34.7127L41.658 43.4287C42.074 43.7927 42.114 44.4267 41.748 44.8407C41.384 45.2547 40.75 45.2967 40.338 44.9287L30.418 36.1887C30.076 35.8747 29.718 36.0127 29.484 36.2447L23.6 42.3527C23.072 42.8927 22.394 43.1907 21.688 43.1967C20.912 43.2167 20.324 42.9207 19.812 42.4047L15.828 38.6007C15.53 38.3007 15.166 38.3067 14.886 38.5847L7.92595 45.4887C7.72995 45.6847 7.47395 45.7807 7.21995 45.7807Z" fill="white"/>
<path d="M21 36C19.346 36 18 34.654 18 33C18 31.346 19.346 30 21 30C22.654 30 24 31.346 24 33C24 34.654 22.654 36 21 36ZM21 32C20.45 32 20 32.448 20 33C20 33.552 20.45 34 21 34C21.55 34 22 33.552 22 33C22 32.448 21.55 32 21 32Z" fill="white"/>
<path d="M39 26.3009C38.448 26.3009 38 25.8529 38 25.3009V20.8809C38 20.3289 38.448 19.8809 39 19.8809C39.552 19.8809 40 20.3289 40 20.8809V25.3009C40 25.8529 39.552 26.3009 39 26.3009Z" fill="white"/>
<path d="M9 26.3009C8.448 26.3009 8 25.8529 8 25.3009V21.4609C8 20.9089 8.448 20.4609 9 20.4609C9.552 20.4609 10 20.9089 10 21.4609V25.3009C10 25.8529 9.552 26.3009 9 26.3009Z" fill="white"/>
<path d="M25 18H22C20.896 18 20 17.102 20 16V8C20 6.898 20.896 6 22 6H26C26.552 6 27 6.448 27 7C27 7.552 26.552 8 26 8H22V11H25C26.104 11 27 11.898 27 13V16C27 17.102 26.104 18 25 18ZM22 13V16H25V13H22Z" fill="white"/>
<path d="M34 18H31C29.896 18 29 17.102 29 16V8C29 6.898 29.896 6 31 6H34C35.104 6 36 6.898 36 8V16C36 17.102 35.104 18 34 18ZM30 16L31 16.002V16H30ZM31 16H34V8H31V16Z" fill="white"/>
<path d="M16 18H13C12.448 18 12 17.552 12 17C12 16.448 12.448 16 13 16H16V13H13C12.448 13 12 12.552 12 12C12 11.448 12.448 11 13 11H16C17.104 11 18 11.898 18 13V16C18 17.102 17.104 18 16 18Z" fill="white"/>
<path d="M16 13H13C12.448 13 12 12.552 12 12C12 11.448 12.448 11 13 11H16V8H13C12.448 8 12 7.552 12 7C12 6.448 12.448 6 13 6H16C17.104 6 18 6.898 18 8V11C18 12.102 17.104 13 16 13Z" fill="white"/>
<path d="M41 6C39.346 6 38 4.654 38 3C38 1.346 39.346 0 41 0C42.654 0 44 1.346 44 3C44 4.654 42.654 6 41 6ZM41 2C40.45 2 40 2.448 40 3C40 3.552 40.45 4 41 4C41.55 4 42 3.552 42 3C42 2.448 41.55 2 41 2Z" fill="white"/>
</g>
<defs>
<clipPath id="clip0_40_412">
<rect width="48" height="48" fill="white"/>
</clipPath>
</defs>
</svg>
