<svg width="48" height="48" viewBox="0 0 48 48" fill="none" xmlns="http://www.w3.org/2000/svg">
<g clip-path="url(#clip0_16_341)">
<path d="M24 28.0001C23.76 28.0001 0 27.7821 0 20.0001C0 17.7101 2.41 15.7221 6.972 14.2501C7.496 14.0781 8.06 14.3701 8.23 14.8941C8.4 15.4181 8.114 15.9821 7.586 16.1521C3.466 17.4821 2 19.0121 2 20.0001C2 23.7181 14.814 26.0001 24 26.0001C31.896 26.0001 46 23.9961 46 20.0001C46 18.7601 44.012 17.3501 40.682 16.2281C40.158 16.0521 39.878 15.4841 40.054 14.9621C40.23 14.4401 40.8 14.1541 41.32 14.3341C46.842 16.1921 48 18.4421 48 20.0001C48 27.7821 24.24 28.0001 24 28.0001Z" fill="white"/>
<path d="M24 48C12.366 48 0 45.196 0 40V20C0 19.448 0.448 19 1 19C1.552 19 2 19.448 2 20V40C2 42.506 10.37 46 24 46C37.63 46 46 42.506 46 40V20C46 19.448 46.448 19 47 19C47.552 19 48 19.448 48 20V40C48 45.196 35.634 48 24 48Z" fill="white"/>
<path d="M7.22001 45.7797C6.96201 45.7797 6.70601 45.6818 6.51001 45.4838C6.12201 45.0918 6.12601 44.4578 6.51601 44.0697L13.474 37.1697C14.526 36.1197 16.174 36.1218 17.226 37.1718L21.21 40.9758C21.362 41.1278 21.55 41.2178 21.674 41.1978C21.846 41.1958 22.014 41.1138 22.162 40.9618L28.056 34.8438C29.128 33.7738 30.714 33.7198 31.764 34.7118L41.658 43.4278C42.074 43.7918 42.114 44.4258 41.748 44.8398C41.384 45.2537 40.75 45.2958 40.338 44.9278L30.418 36.1878C30.076 35.8738 29.718 36.0118 29.484 36.2438L23.6 42.3518C23.072 42.8918 22.394 43.1897 21.688 43.1957C20.912 43.2157 20.324 42.9197 19.812 42.4037L15.828 38.5997C15.53 38.2997 15.166 38.3058 14.886 38.5838L7.92601 45.4877C7.73001 45.6837 7.47401 45.7797 7.22001 45.7797Z" fill="white"/>
<path d="M21 36C19.346 36 18 34.654 18 33C18 31.346 19.346 30 21 30C22.654 30 24 31.346 24 33C24 34.654 22.654 36 21 36ZM21 32C20.45 32 20 32.448 20 33C20 33.552 20.45 34 21 34C21.55 34 22 33.552 22 33C22 32.448 21.55 32 21 32Z" fill="white"/>
<path d="M39 26.2999C38.448 26.2999 38 25.8519 38 25.2999V20.8799C38 20.3279 38.448 19.8799 39 19.8799C39.552 19.8799 40 20.3279 40 20.8799V25.2999C40 25.8519 39.552 26.2999 39 26.2999Z" fill="white"/>
<path d="M9 26.3C8.448 26.3 8 25.852 8 25.3V21.46C8 20.908 8.448 20.46 9 20.46C9.552 20.46 10 20.908 10 21.46V25.3C10 25.852 9.552 26.3 9 26.3Z" fill="white"/>
<path d="M25 18H22C20.896 18 20 17.102 20 16V8C20 6.898 20.896 6 22 6H26C26.552 6 27 6.448 27 7C27 7.552 26.552 8 26 8H22V11H25C26.104 11 27 11.898 27 13V16C27 17.102 26.104 18 25 18ZM22 13V16H25V13H22Z" fill="white"/>
<path d="M34 18H31C29.896 18 29 17.102 29 16V8C29 6.898 29.896 6 31 6H34C35.104 6 36 6.898 36 8V16C36 17.102 35.104 18 34 18ZM30 16L31 16.002V16H30ZM31 16H34V8H31V16Z" fill="white"/>
<path d="M16 18H13C12.448 18 12 17.552 12 17C12 16.448 12.448 16 13 16H16V13H13C12.448 13 12 12.552 12 12C12 11.448 12.448 11 13 11H16C17.104 11 18 11.898 18 13V16C18 17.102 17.104 18 16 18Z" fill="white"/>
<path d="M16 13H13C12.448 13 12 12.552 12 12C12 11.448 12.448 11 13 11H16V8H13C12.448 8 12 7.552 12 7C12 6.448 12.448 6 13 6H16C17.104 6 18 6.898 18 8V11C18 12.102 17.104 13 16 13Z" fill="white"/>
<path d="M41 6C39.346 6 38 4.654 38 3C38 1.346 39.346 0 41 0C42.654 0 44 1.346 44 3C44 4.654 42.654 6 41 6ZM41 2C40.45 2 40 2.448 40 3C40 3.552 40.45 4 41 4C41.55 4 42 3.552 42 3C42 2.448 41.55 2 41 2Z" fill="white"/>
</g>
<defs>
<clipPath id="clip0_16_341">
<rect width="48" height="48" fill="white"/>
</clipPath>
</defs>
</svg>
