<svg width="205" height="80" viewBox="0 0 205 80" fill="none" xmlns="http://www.w3.org/2000/svg">
<g clip-path="url(#clip0_13_5)">
<path d="M143.194 66.8413V50.8507L132.997 39.4682L143.122 28.4008V12.7253H157.894L168.163 1.46094L178.072 12.2526H192.881V28.2826L202.897 39.5076L193.097 50.7719V66.5656H178.36L168.235 77.9087L157.678 66.6444L143.194 66.8413Z" stroke="white" stroke-width="3" stroke-miterlimit="10"/>
<path d="M178.36 66.5654L143.122 28.4006L192.881 28.2824L157.678 66.6442L157.894 12.7251L193.097 50.7717L143.194 50.8505L178.072 12.2524L178.36 66.5654Z" stroke="white" stroke-width="3" stroke-miterlimit="10" stroke-linecap="square" stroke-linejoin="bevel"/>
<path d="M40.1443 41.5555V46.715H7.31985C5.9867 46.715 4.50942 46.715 3.93292 46.3999C2.59976 45.8485 0.185669 43.0127 0.185669 41.713C0.185669 40.2557 2.74389 37.223 2.74389 37.223C3.64467 38.6803 4.7256 41.0041 6.41907 41.4767L6.77938 41.5555H30.8482C30.7041 37.932 29.8033 35.1356 28.8665 30.8425C28.8665 30.7638 32.4697 26.5889 32.9741 26.5889C33.1903 26.904 35.172 31.5121 35.3161 41.5555H40.1443ZM13.301 28.6763L16.4718 32.1423L13.301 35.687L10.1303 32.1423L13.301 28.6763ZM20.7235 28.6763L23.8942 32.1423L20.7235 35.687L17.5527 32.1423L20.7235 28.6763Z" fill="white"/>
<path d="M59.349 1.65771C59.349 1.65771 58.4482 4.21779 57.9438 4.21779H48.7558C48.7558 4.21779 49.7286 1.65771 50.089 1.65771H59.349Z" fill="white"/>
<path d="M70.1223 41.6345C70.1223 41.6345 68.8612 46.7153 67.0957 46.7153C66.9515 46.7153 35.0639 46.7153 35.0639 46.7153V41.5557H65.4743C64.7536 37.9322 63.4925 37.6959 60.61 37.6959H40.7929C40.2884 37.6959 39.4597 37.6959 39.4597 36.987C39.4597 36.8294 39.4597 36.6719 39.5318 36.5143C40.0362 34.8208 40.937 32.8909 40.937 32.8909L54.4127 16.979C54.845 16.979 55.89 22.5324 55.89 23.005L47.9991 32.497H62.1594C64.069 32.497 67.2398 32.8909 67.9604 34.4269C68.9333 36.278 69.6539 39.5864 70.0142 41.0437C70.1223 41.3194 70.1223 41.4769 70.1223 41.6345Z" fill="white"/>
<path d="M83.9583 63.8875C79.5264 65.8174 75.0585 67.511 70.6988 69.0471L70.6267 68.9683L71.1672 66.2507C76.2115 64.3995 81.4361 62.4696 85.3275 60.8154L85.3995 60.9336L83.9583 63.8875Z" fill="white"/>
<path d="M85.5797 45.3365C85.5797 45.8879 85.2915 48.0541 85.0753 48.96C84.4267 52.1896 83.0215 55.8919 78.3014 57.5067C76.9683 57.9006 75.8153 58.0581 74.7703 58.1369C71.4555 58.2944 69.762 57.0735 69.6899 56.5221C69.8341 55.8919 70.4826 51.1262 71.3113 51.0474C71.4555 51.0474 71.4555 51.1262 71.5275 51.205C71.9599 51.4413 73.6534 52.5047 76.1035 52.4259C77.0043 52.3472 78.0132 52.1108 79.0581 51.6382L79.3463 51.4807C80.3912 51.0868 82.3729 50.2597 82.445 48.8418C82.3009 45.4547 79.7787 41.0435 77.4367 37.0261L76.9322 36.0415C76.8602 36.0415 76.7881 35.9627 76.7881 35.8051C76.7881 34.3479 79.5265 30.6456 79.5985 30.7244C80.7876 32.1817 83.634 34.3479 83.634 34.3479C83.634 34.3479 83.2017 35.8839 82.7333 36.5141C84.0304 38.9166 85.5797 43.9974 85.5797 45.3365Z" fill="white"/>
<path d="M104.784 41.5558H107.451V46.7153H104.352C102.947 50.9689 99.6318 55.8922 96.2449 56.5223C95.2 56.7587 94.3353 56.8374 93.3624 56.8374C92.1013 56.8374 86.6606 56.3648 86.5165 54.75C86.5885 54.1198 87.7055 49.6692 88.7864 49.6692C89.5071 49.9843 91.5969 51.2053 94.9118 51.2053C95.7044 51.2053 96.6773 51.2053 97.5781 50.8902C100.677 50.0237 101.614 48.0544 101.614 46.7153H94.2632C93.9029 46.7153 93.6146 46.7153 93.2903 46.6365C90.552 46.1639 88.5703 43.9977 88.5703 41.0831C88.5703 39.7834 89.1468 37.8535 89.9755 36.3174C91.8131 32.9303 93.5786 31.6699 95.8486 31.6699C97.0376 31.6699 98.2627 32.1426 99.6679 33.206C102.514 35.3722 104.28 38.9957 104.784 41.5558ZM95.4522 37.2233C94.4073 37.2233 93.2543 38.208 93.2543 39.7046C93.2543 40.8468 94.2272 42.1071 95.4522 42.1071C96.6773 42.1071 97.7222 41.0437 97.7943 39.8622C97.7943 38.4443 96.8214 37.2233 95.4522 37.2233Z" fill="white"/>
<path d="M108.099 12.3313L107.451 10.7953C108.856 10.1651 110.549 8.62908 111.702 7.25058C110.982 6.62041 109.865 5.87208 109.865 4.6905C109.865 4.45419 109.865 4.29665 109.865 4.1391C109.865 3.27262 112.603 0.279297 113.828 0.279297C114.873 0.279297 116.098 0.909469 115.377 4.45419C114.224 8.31399 109.793 12.0163 108.099 12.3313ZM113.18 5.63576C113.396 5.16313 113.684 4.76927 113.684 4.09972C113.684 3.46954 113.684 2.87876 112.711 2.87876C111.991 2.87876 111.378 3.5877 111.594 4.17849C111.991 5.2419 112.135 4.92682 113.18 5.63576Z" fill="white"/>
<path d="M112.891 27.8101C113.108 28.2827 113.54 31.1972 115.99 34.6632L114.585 37.4596C114.585 37.4596 115.089 41.9495 115.089 43.6431C115.089 45.2579 114.873 46.7152 111.126 46.7152C111.126 46.7152 108.856 46.7152 106.117 46.7152V41.5557H110.693L109.432 31.6699C110.009 30.9609 111.991 27.9676 112.891 27.8101ZM109.865 50.8901L113.035 54.3561L109.865 57.9008L106.694 54.3561L109.865 50.8901Z" fill="white"/>
<path d="M1.05042 60.1062C1.01439 59.9093 0.942325 59.7124 0.7982 59.5942C0.654075 59.4367 0.50995 59.3579 0.329794 59.3579C0.329794 59.3579 0.293763 59.3579 0.257731 59.3579C0.2217 59.3579 0.185669 59.3579 0.185669 59.3579V59.2397H1.05042V60.1062ZM1.05042 66.6049V67.4714H0.185669V67.3532C0.185669 67.3532 0.2217 67.3532 0.257731 67.3532C0.293763 67.3532 0.293763 67.3532 0.329794 67.3532C0.50995 67.3532 0.690106 67.2744 0.7982 67.1169C0.942325 66.9594 1.01439 66.8018 1.05042 66.6049ZM1.69898 59.2397V67.432H1.01439V59.2397H1.69898ZM2.31151 59.2397C2.81595 59.2397 3.24832 59.3185 3.5726 59.4761C3.93292 59.6336 4.18514 59.8699 4.36529 60.1456C4.54545 60.4213 4.61751 60.7758 4.61751 61.1697C4.61751 61.4847 4.54545 61.7998 4.43735 62.0361C4.32926 62.2725 4.18514 62.4694 4.00498 62.6269C3.82482 62.7845 3.64467 62.9026 3.42848 62.942C3.82482 63.0208 4.1491 63.1389 4.40132 63.3359C4.68957 63.5328 4.90576 63.8085 5.04989 64.1236C5.19401 64.4387 5.26607 64.7931 5.26607 65.187C5.26607 65.6202 5.15798 66.0141 4.97782 66.3292C4.79767 66.6443 4.50942 66.92 4.11307 67.1169C3.75276 67.3138 3.28435 67.3926 2.74389 67.3926H1.62692C1.62692 67.2351 1.62692 67.1169 1.62692 66.9594H2.77992C3.14023 66.9594 3.46451 66.8806 3.71673 66.723C3.96895 66.5655 4.18514 66.3686 4.29323 66.0929C4.43735 65.8172 4.50942 65.4627 4.50942 65.0688C4.50942 64.6356 4.43735 64.2811 4.29323 64.0054C4.1491 63.7297 3.93292 63.5328 3.6807 63.3753C3.42848 63.2177 3.17626 63.1389 2.88801 63.0996C2.59976 63.1389 2.34754 63.0996 2.05929 63.0996V62.9814C2.23945 62.9814 2.41961 62.9814 2.59976 62.942C2.81595 62.9026 2.9961 62.8239 3.17626 62.7057C3.35642 62.5875 3.50054 62.43 3.64467 62.1937C3.75276 61.9574 3.82482 61.6423 3.82482 61.2878C3.82482 60.9333 3.75276 60.6183 3.64467 60.3819C3.53657 60.1456 3.35642 59.9487 3.1042 59.8305C2.88801 59.7124 2.59976 59.6336 2.23945 59.6336H1.30264C1.30264 59.6336 1.30264 59.5942 1.26661 59.5154C1.26661 59.4761 1.23057 59.3579 1.19454 59.2397H2.31151Z" fill="white"/>
<path d="M12.6525 59.082C13.4091 59.082 14.0937 59.279 14.6702 59.6334C15.2467 59.9879 15.7151 60.4999 16.0394 61.1301C16.3637 61.7603 16.5439 62.5086 16.5439 63.3751C16.5439 64.2416 16.3637 64.9899 16.0394 65.6201C15.7151 66.2502 15.2467 66.7623 14.6702 67.1167C14.0937 67.4712 13.4091 67.6681 12.6525 67.6681C11.8958 67.6681 11.2112 67.4712 10.6347 67.1167C10.0582 66.7623 9.58983 66.2502 9.26555 65.6201C8.94127 64.9899 8.76111 64.2416 8.76111 63.3751C8.76111 62.5086 8.94127 61.7603 9.26555 61.1301C9.58983 60.4999 10.0582 59.9879 10.6347 59.6334C11.2112 59.2396 11.8598 59.082 12.6525 59.082ZM12.6525 67.2743C13.265 67.2743 13.8055 67.1167 14.2379 66.7623C14.6702 66.4078 15.0305 65.9745 15.2828 65.3838C15.535 64.793 15.6791 64.1234 15.6791 63.3357C15.6791 62.548 15.535 61.8784 15.2828 61.2876C15.0305 60.6968 14.6702 60.2242 14.2379 59.9091C13.8055 59.594 13.265 59.3971 12.6525 59.3971C12.04 59.3971 11.5355 59.5547 11.0671 59.9091C10.5987 60.2242 10.2744 60.6968 10.0222 61.2876C9.76998 61.8784 9.62586 62.548 9.62586 63.3357C9.62586 64.1234 9.76998 64.793 10.0222 65.3838C10.2744 65.9745 10.6347 66.4472 11.0671 66.7623C11.4995 67.1167 12.04 67.2743 12.6525 67.2743Z" fill="white"/>
<path d="M29.1908 60.1062C29.1548 59.9093 29.0827 59.7124 28.9386 59.5942C28.7945 59.4367 28.6503 59.3579 28.4702 59.3579H28.326V59.2397H29.1908V60.1062ZM29.1908 66.6049V67.4714H28.326V67.3532H28.4702C28.6503 67.3532 28.8305 67.2744 28.9386 67.1169C29.0827 66.9594 29.1548 66.8018 29.1908 66.6049ZM29.8394 59.2397V67.432H29.1548V59.2397H29.8394ZM29.8033 60.1062V59.2397H30.6681V59.3579C30.6681 59.3579 30.632 59.3579 30.524 59.3579C30.3438 59.3579 30.1636 59.4367 30.0555 59.5942C29.9114 59.7124 29.8394 59.9093 29.8033 60.1062ZM29.8033 66.6049C29.8394 66.8018 29.9114 66.9987 30.0555 67.1169C30.1997 67.2744 30.3438 67.3532 30.524 67.3532C30.596 67.3532 30.6681 67.3532 30.6681 67.3532V67.4714H29.8033V66.6049Z" fill="white"/>
<path d="M34.9558 60.1062C34.9198 59.9093 34.8477 59.7124 34.7036 59.5942C34.5595 59.4367 34.4153 59.3579 34.2352 59.3579H34.0911V59.2397H34.9558V60.1062ZM34.9558 66.6049V67.4714H34.0911V67.3532H34.2352C34.4153 67.3532 34.5955 67.2744 34.7036 67.1169C34.8477 66.9594 34.9198 66.8018 34.9558 66.6049ZM35.6404 59.2397V67.432H34.9558V59.2397H35.6404ZM35.6044 60.1062V59.2397H36.4691V59.3579C36.4691 59.3579 36.4331 59.3579 36.325 59.3579C36.1448 59.3579 35.9647 59.4367 35.8566 59.5942C35.7125 59.7124 35.6404 59.9093 35.6044 60.1062ZM35.6044 66.6049C35.6404 66.8018 35.7125 66.9987 35.8566 67.1169C36.0007 67.2744 36.1448 67.3532 36.325 67.3532C36.3971 67.3532 36.4691 67.3532 36.4691 67.3532V67.4714H35.6044V66.6049ZM39.6399 59.3185L36.4331 63.3753H35.9647L38.9193 59.3185H39.6399ZM36.5412 62.942L39.6038 66.8412C39.748 66.9987 39.8921 67.1169 40.0722 67.1957C40.2164 67.2744 40.3965 67.3138 40.6488 67.3138V67.432H40.1803C40.1083 67.432 40.0002 67.432 39.8921 67.432C39.748 67.432 39.6038 67.3926 39.4597 67.3532C39.3156 67.3138 39.1354 67.2351 38.9913 67.1563C38.8472 67.0775 38.7031 66.9594 38.595 66.8018C38.3427 66.4867 38.1266 66.1716 37.9104 65.9353C37.6942 65.699 37.514 65.3839 37.2978 65.1082C37.0817 64.8325 36.8655 64.5568 36.6853 64.2811C36.5052 64.0054 36.2529 63.7297 36.0007 63.4146L36.5412 62.942ZM40.3965 59.2397V59.3579H40.3605C40.1083 59.3579 39.8921 59.3973 39.7119 59.5154C39.4957 59.6336 39.3516 59.7518 39.2075 59.9487L38.5229 59.9093C38.631 59.7911 38.631 59.6336 38.5589 59.5154C38.4869 59.3973 38.3788 59.3579 38.2707 59.3579H38.1626V59.2397H40.3965Z" fill="white"/>
<path d="M44.1798 66.6047C44.1437 66.7623 44.1077 66.8804 44.1437 66.9986C44.1798 67.1167 44.2518 67.1955 44.3239 67.2349C44.396 67.2743 44.5041 67.3137 44.5761 67.3137H44.6842V67.4318H42.5223V67.3137H42.6304C42.8106 67.3137 42.9547 67.2743 43.1349 67.1561C43.315 67.038 43.4592 66.841 43.5672 66.6047H44.1798ZM46.5218 59.082L46.6299 59.9091L43.9276 67.4318H43.279L46.0174 60.303C46.0894 60.1061 46.1615 59.9485 46.2336 59.791C46.2696 59.6334 46.3416 59.5153 46.3777 59.3971C46.4137 59.279 46.4497 59.1608 46.4497 59.1214H46.5218V59.082ZM48.0351 64.2416V64.596H44.6842V64.2416H48.0351ZM46.5218 59.082L49.6926 67.3924H48.7918L46.3056 60.1848L46.5218 59.082ZM48.5035 66.6047H49.3683C49.4764 66.8804 49.6205 67.0773 49.8006 67.1561C49.9808 67.2743 50.161 67.3137 50.3051 67.3137H50.3771V67.4318H47.9631V67.3137H48.0711C48.2153 67.3137 48.3234 67.2349 48.4315 67.1167C48.5756 66.9986 48.5756 66.841 48.5035 66.6047Z" fill="white"/>
<path d="M51.8905 59.0034C51.9626 59.0428 52.0707 59.0822 52.2148 59.0822C52.3589 59.1216 52.5391 59.1216 52.7192 59.161C52.8994 59.2003 53.0795 59.2003 53.2237 59.2003L51.9265 59.3185V59.0034H51.8905ZM58.1239 59.2397V59.5942H51.9265V59.2397H58.1239ZM52.6472 59.5548C52.467 59.5942 52.3229 59.673 52.1788 59.7911C52.0707 59.9093 51.9986 60.1062 51.9986 60.3031V60.5001H51.8905V59.5548H52.6472ZM54.7009 66.6049V67.4714H53.8362V67.3532H53.9803C54.1605 67.3532 54.3406 67.2744 54.4487 67.1169C54.5928 66.9593 54.6649 66.8018 54.7009 66.6049ZM55.3495 59.2791V67.4714H54.6649V59.2791H55.3495ZM55.3135 66.6049C55.3495 66.8018 55.4216 66.9987 55.5657 67.1169C55.7098 67.2744 55.8539 67.3532 56.0341 67.3532H56.1782V67.4714H55.3135V66.6049ZM58.1239 59.0034V59.3579L56.8268 59.2397C56.9709 59.2397 57.1511 59.2397 57.3312 59.2003C57.5114 59.161 57.6555 59.161 57.8357 59.1216C57.9437 59.0822 58.0518 59.0428 58.1239 59.0034ZM58.1239 59.5548V60.5001H58.0158V60.3031C58.0158 60.1062 57.9437 59.9487 57.8357 59.7911C57.7276 59.673 57.5474 59.5942 57.4033 59.5942V59.5548H58.1239Z" fill="white"/>
<path d="M20.2551 60.1064C20.219 59.9095 20.147 59.7125 20.0029 59.5944C19.8587 59.4762 19.7146 59.3974 19.5344 59.3974H19.3903V59.2793H20.2551V60.1064ZM20.2551 66.5657V67.4321H19.3903V67.314H19.5344C19.7146 67.314 19.8948 67.2352 20.0029 67.1171C20.147 66.9201 20.219 66.7626 20.2551 66.5657ZM20.9036 59.2399V67.4321H20.219V59.2399H20.9036ZM22.2728 59.2399C22.5971 59.2399 22.8853 59.2793 23.1376 59.3974C23.3898 59.5156 23.606 59.6338 23.7861 59.8307C23.9663 60.0276 24.1104 60.2639 24.1825 60.5002C24.2906 60.7759 24.3266 61.091 24.3266 61.4061C24.3266 61.7606 24.2545 62.1544 24.0744 62.4695C23.9303 62.824 23.7141 63.0997 23.4258 63.2966C23.1376 63.4936 22.8493 63.6117 22.489 63.6117C22.5971 63.6511 22.7412 63.7693 22.8853 63.9268C23.0295 64.0844 23.1376 64.2419 23.2457 64.3994C23.4258 64.7145 23.606 64.9508 23.7501 65.1872C23.8942 65.4235 24.0383 65.6204 24.1825 65.8173C24.3266 66.0143 24.4707 66.2112 24.5788 66.3293C24.7229 66.4869 24.8671 66.6444 25.0112 66.802C25.1553 66.9201 25.2994 67.0383 25.4796 67.1171C25.6598 67.1958 25.8399 67.2352 26.0561 67.2352V67.3534H25.4796C25.1553 67.3534 24.8671 67.314 24.6148 67.1958C24.3626 67.0777 24.1825 66.9595 24.0023 66.802C23.8222 66.6444 23.7141 66.4869 23.5699 66.3293C23.5339 66.29 23.4979 66.2112 23.3898 66.0536C23.2817 65.8961 23.1736 65.7386 23.0655 65.5416C22.9214 65.3447 22.8133 65.1478 22.6692 64.9115C22.525 64.7145 22.4169 64.5176 22.3449 64.3994C22.2368 64.2419 22.2008 64.1631 22.2008 64.1631C22.0566 63.9662 21.9125 63.8087 21.7684 63.6117C21.5882 63.4542 21.4441 63.3754 21.2279 63.3754V63.2572C21.4441 63.2572 21.6243 63.2572 21.8044 63.2572C21.9846 63.2572 22.2008 63.2179 22.4169 63.1785C22.6331 63.1391 22.8493 63.0209 23.0295 62.824C23.2096 62.6665 23.3538 62.3908 23.4618 62.0363C23.4979 61.9575 23.4979 61.8394 23.4979 61.7212C23.4979 61.603 23.4979 61.4849 23.4979 61.3273C23.4979 60.8153 23.3538 60.3821 23.1376 60.067C22.8853 59.7519 22.5971 59.5944 22.1647 59.555C21.9485 59.555 21.7684 59.5156 21.5522 59.555C21.336 59.555 21.0838 59.555 20.7955 59.555C20.7955 59.555 20.7955 59.5156 20.7595 59.4368C20.7595 59.3974 20.7235 59.2793 20.6874 59.1611H22.2728V59.2399ZM20.8676 66.5657C20.9036 66.7626 20.9757 66.9595 21.1198 67.0777C21.2639 67.2352 21.4081 67.2746 21.5882 67.2746H21.7323V67.3928H20.9036V66.5657H20.8676Z" fill="white"/>
</g>
<defs>
<clipPath id="clip0_13_5">
<rect width="203.973" height="79.2048" fill="white" transform="translate(0.185669 0.0825195)"/>
</clipPath>
</defs>
</svg>
