<svg width="204" height="78" viewBox="0 0 204 78" fill="none" xmlns="http://www.w3.org/2000/svg">
<g clip-path="url(#clip0_1_8)">
<path d="M142.894 60.3682V45.9355L132.829 35.6619L142.823 25.6727V11.5243H157.406L167.542 1.35742L177.323 11.0978H191.941V25.5661L201.829 35.6975L192.155 45.8644V60.1194H177.608L167.613 70.3574L157.192 60.1905L142.894 60.3682Z" stroke="white" stroke-width="3" stroke-miterlimit="10"/>
<path d="M177.608 60.1193L142.823 25.6726L191.941 25.566L157.192 60.1904L157.406 11.5242L192.155 45.8643L142.894 45.9354L177.323 11.0977L177.608 60.1193Z" stroke="white" stroke-width="3" stroke-miterlimit="10" stroke-linecap="square" stroke-linejoin="bevel"/>
<path d="M39.964 40.8422V45.9233H7.13513C5.8018 45.9233 4.32432 45.9233 3.74775 45.613C2.41441 45.07 0 42.2773 0 40.9974C0 39.5622 2.55856 36.5757 2.55856 36.5757C3.45946 38.0108 4.54054 40.2992 6.23423 40.7646L6.59459 40.8422H30.6667C30.5225 37.2738 29.6216 34.52 28.6847 30.2922C28.6847 30.2147 32.2883 26.1033 32.7928 26.1033C33.009 26.4136 34.991 30.9516 35.1351 40.8422H39.964ZM13.1171 28.159L16.2883 31.5722L13.1171 35.063L9.94595 31.5722L13.1171 28.159ZM20.5405 28.159L23.7117 31.5722L20.5405 35.063L17.3694 31.5722L20.5405 28.159Z" fill="white"/>
<path d="M59.1712 1.55127C59.1712 1.55127 58.2703 4.0724 57.7658 4.0724H48.5766C48.5766 4.0724 49.5496 1.55127 49.9099 1.55127H59.1712Z" fill="white"/>
<path d="M69.9459 40.9199C69.9459 40.9199 68.6847 45.9233 66.9189 45.9233C66.7748 45.9233 34.8829 45.9233 34.8829 45.9233V40.8423H65.2973C64.5766 37.2739 63.3153 37.0412 60.4324 37.0412H40.6126C40.1081 37.0412 39.2793 37.0412 39.2793 36.343C39.2793 36.1879 39.2793 36.0327 39.3513 35.8776C39.8558 34.2098 40.7567 32.3092 40.7567 32.3092L54.2342 16.6394C54.6667 16.6394 55.7117 22.1083 55.7117 22.5738L47.8198 31.9214H61.982C63.8919 31.9214 67.0631 32.3092 67.7838 33.8219C68.7567 35.6449 69.4775 38.903 69.8378 40.3381C69.9459 40.6096 69.9459 40.7647 69.9459 40.9199Z" fill="white"/>
<path d="M83.7838 62.8344C79.3513 64.735 74.8829 66.4028 70.5225 67.9155L70.4504 67.8379L70.991 65.1616C76.036 63.3387 81.2613 61.4381 85.1531 59.8091L85.2252 59.9254L83.7838 62.8344Z" fill="white"/>
<path d="M85.4054 44.5659C85.4054 45.1089 85.1172 47.2422 84.9009 48.1343C84.2523 51.3148 82.8469 54.9607 78.1262 56.551C76.7928 56.9388 75.6397 57.094 74.5946 57.1715C71.2793 57.3267 69.5856 56.1243 69.5135 55.5813C69.6577 54.9607 70.3063 50.2675 71.1352 50.1899C71.2793 50.1899 71.2793 50.2675 71.3514 50.3451C71.7838 50.5778 73.4775 51.6251 75.928 51.5475C76.8289 51.4699 77.8379 51.2372 78.8829 50.7717L79.1712 50.6166C80.2163 50.2287 82.1982 49.4142 82.2703 48.0179C82.1262 44.6822 79.6036 40.3381 77.2613 36.3819L76.7568 35.4122C76.6847 35.4122 76.6127 35.3346 76.6127 35.1795C76.6127 33.7444 79.3514 30.0985 79.4235 30.176C80.6126 31.6111 83.4595 33.7444 83.4595 33.7444C83.4595 33.7444 83.0271 35.2571 82.5586 35.8777C83.8559 38.2437 85.4054 43.2471 85.4054 44.5659Z" fill="white"/>
<path d="M104.613 40.8424H107.279V45.9234H104.18C102.775 50.1124 99.4595 54.9607 96.0721 55.5813C95.027 55.814 94.1622 55.8916 93.1892 55.8916C91.9279 55.8916 86.4865 55.4262 86.3423 53.8359C86.4144 53.2153 87.5315 48.8324 88.6126 48.8324C89.3333 49.1427 91.4234 50.3451 94.7387 50.3451C95.5315 50.3451 96.5045 50.3451 97.4054 50.0348C100.505 49.1815 101.441 47.2422 101.441 45.9234H94.0901C93.7297 45.9234 93.4414 45.9234 93.1171 45.8459C90.3784 45.3804 88.3964 43.2472 88.3964 40.3769C88.3964 39.097 88.973 37.1964 89.8018 35.6838C91.6396 32.3481 93.4054 31.1069 95.6757 31.1069C96.8649 31.1069 98.0901 31.5724 99.4955 32.6196C102.342 34.7529 104.108 38.3213 104.613 40.8424ZM95.2793 36.5759C94.2342 36.5759 93.0811 37.5455 93.0811 39.0194C93.0811 40.1442 94.0541 41.3854 95.2793 41.3854C96.5045 41.3854 97.5495 40.3382 97.6216 39.1746C97.6216 37.7782 96.6486 36.5759 95.2793 36.5759Z" fill="white"/>
<path d="M107.928 12.0626L107.279 10.5499C108.685 9.9293 110.378 8.41662 111.532 7.05909C110.811 6.4385 109.694 5.70156 109.694 4.53796C109.694 4.30524 109.694 4.15009 109.694 3.99494C109.694 3.14164 112.432 0.193848 113.658 0.193848C114.703 0.193848 115.928 0.814435 115.207 4.30524C114.054 8.10633 109.622 11.7523 107.928 12.0626ZM113.009 5.46884C113.225 5.0034 113.514 4.61553 113.514 3.95616C113.514 3.33557 113.514 2.75377 112.541 2.75377C111.82 2.75377 111.207 3.45193 111.423 4.03373C111.82 5.08097 111.964 4.77068 113.009 5.46884Z" fill="white"/>
<path d="M112.721 27.3057C112.937 27.7711 113.369 30.6413 115.82 34.0545L114.414 36.8084C114.414 36.8084 114.919 41.2301 114.919 42.8979C114.919 44.4882 114.703 45.9233 110.955 45.9233C110.955 45.9233 108.685 45.9233 105.946 45.9233V40.8422H110.523L109.261 31.1068C109.838 30.4086 111.82 27.4608 112.721 27.3057ZM109.694 50.0347L112.865 53.4479L109.694 56.9387L106.523 53.4479L109.694 50.0347Z" fill="white"/>
<path d="M0.864865 59.1109C0.828829 58.9169 0.756757 58.723 0.612613 58.6067C0.468469 58.4515 0.324324 58.3739 0.144144 58.3739C0.144144 58.3739 0.108108 58.3739 0.0720721 58.3739C0.036036 58.3739 0 58.3739 0 58.3739V58.2576H0.864865V59.1109ZM0.864865 65.5107V66.364H0V66.2476C0 66.2476 0.036036 66.2476 0.0720721 66.2476C0.108108 66.2476 0.108108 66.2476 0.144144 66.2476C0.324324 66.2476 0.504505 66.17 0.612613 66.0149C0.756757 65.8598 0.828829 65.7046 0.864865 65.5107ZM1.51351 58.2576V66.3252H0.828829V58.2576H1.51351ZM2.12613 58.2576C2.63063 58.2576 3.06306 58.3351 3.38739 58.4903C3.74775 58.6454 4 58.8782 4.18018 59.1497C4.36036 59.4212 4.43243 59.7703 4.43243 60.1581C4.43243 60.4684 4.36036 60.7787 4.25225 61.0114C4.14414 61.2441 4 61.4381 3.81982 61.5932C3.63964 61.7484 3.45946 61.8647 3.24324 61.9035C3.63964 61.9811 3.96396 62.0975 4.21622 62.2914C4.5045 62.4853 4.72072 62.7568 4.86487 63.0671C5.00901 63.3774 5.08108 63.7265 5.08108 64.1144C5.08108 64.541 4.97297 64.9289 4.79279 65.2392C4.61261 65.5495 4.32432 65.821 3.92793 66.0149C3.56757 66.2088 3.0991 66.2864 2.55856 66.2864H1.44144C1.44144 66.1313 1.44144 66.0149 1.44144 65.8598H2.59459C2.95496 65.8598 3.27928 65.7822 3.53153 65.627C3.78378 65.4719 4 65.278 4.10811 65.0065C4.25225 64.7349 4.32432 64.3859 4.32432 63.998C4.32432 63.5713 4.25225 63.2223 4.10811 62.9508C3.96396 62.6793 3.74775 62.4853 3.4955 62.3302C3.24324 62.175 2.99099 62.0974 2.7027 62.0587C2.41441 62.0974 2.16216 62.0587 1.87387 62.0587V61.9423C2.05405 61.9423 2.23423 61.9423 2.41441 61.9035C2.63063 61.8647 2.81081 61.7872 2.99099 61.6708C3.17117 61.5544 3.31532 61.3993 3.45946 61.1666C3.56757 60.9338 3.63964 60.6236 3.63964 60.2745C3.63964 59.9254 3.56757 59.6151 3.45946 59.3824C3.35135 59.1497 3.17117 58.9557 2.91892 58.8394C2.7027 58.723 2.41441 58.6454 2.05405 58.6454H1.11712C1.11712 58.6454 1.11712 58.6066 1.08108 58.5291C1.08108 58.4903 1.04505 58.3739 1.00901 58.2576H2.12613Z" fill="white"/>
<path d="M12.4685 58.1025C13.2252 58.1025 13.9099 58.2965 14.4865 58.6456C15.0631 58.9946 15.5316 59.4989 15.8559 60.1194C16.1802 60.74 16.3604 61.477 16.3604 62.3303C16.3604 63.1836 16.1802 63.9205 15.8559 64.5411C15.5316 65.1617 15.0631 65.6659 14.4865 66.015C13.9099 66.3641 13.2252 66.558 12.4685 66.558C11.7117 66.558 11.0271 66.3641 10.4505 66.015C9.8739 65.6659 9.40543 65.1617 9.0811 64.5411C8.75678 63.9205 8.5766 63.1836 8.5766 62.3303C8.5766 61.477 8.75678 60.74 9.0811 60.1194C9.40543 59.4989 9.8739 58.9946 10.4505 58.6456C11.0271 58.2577 11.6757 58.1025 12.4685 58.1025ZM12.4685 66.1702C13.0811 66.1702 13.6216 66.015 14.0541 65.6659C14.4865 65.3169 14.8469 64.8902 15.0991 64.3084C15.3514 63.7266 15.4955 63.0672 15.4955 62.2915C15.4955 61.5158 15.3514 60.8564 15.0991 60.2746C14.8469 59.6928 14.4865 59.2273 14.0541 58.9171C13.6216 58.6068 13.0811 58.4128 12.4685 58.4128C11.8559 58.4128 11.3514 58.568 10.8829 58.9171C10.4144 59.2273 10.0901 59.6928 9.83786 60.2746C9.58561 60.8564 9.44146 61.5158 9.44146 62.2915C9.44146 63.0672 9.58561 63.7266 9.83786 64.3084C10.0901 64.8902 10.4505 65.3556 10.8829 65.6659C11.3153 66.015 11.8559 66.1702 12.4685 66.1702Z" fill="white"/>
<path d="M29.009 59.1109C28.973 58.9169 28.9009 58.723 28.7568 58.6067C28.6126 58.4515 28.4685 58.3739 28.2883 58.3739H28.1442V58.2576H29.009V59.1109ZM29.009 65.5107V66.364H28.1442V66.2476H28.2883C28.4685 66.2476 28.6487 66.17 28.7568 66.0149C28.9009 65.8598 28.973 65.7046 29.009 65.5107ZM29.6577 58.2576V66.3252H28.973V58.2576H29.6577ZM29.6216 59.1109V58.2576H30.4865V58.3739C30.4865 58.3739 30.4505 58.3739 30.3424 58.3739C30.1622 58.3739 29.982 58.4515 29.8739 58.6067C29.7298 58.723 29.6577 58.9169 29.6216 59.1109ZM29.6216 65.5107C29.6577 65.7046 29.7298 65.8985 29.8739 66.0149C30.018 66.17 30.1622 66.2476 30.3424 66.2476C30.4144 66.2476 30.4865 66.2476 30.4865 66.2476V66.364H29.6216V65.5107Z" fill="white"/>
<path d="M34.7748 59.1109C34.7387 58.9169 34.6667 58.723 34.5225 58.6067C34.3784 58.4515 34.2342 58.3739 34.0541 58.3739H33.9099V58.2576H34.7748V59.1109ZM34.7748 65.5107V66.364H33.9099V66.2476H34.0541C34.2342 66.2476 34.4144 66.17 34.5225 66.0149C34.6667 65.8598 34.7387 65.7046 34.7748 65.5107ZM35.4595 58.2576V66.3252H34.7748V58.2576H35.4595ZM35.4234 59.1109V58.2576H36.2883V58.3739C36.2883 58.3739 36.2523 58.3739 36.1441 58.3739C35.964 58.3739 35.7838 58.4515 35.6757 58.6067C35.5315 58.723 35.4595 58.9169 35.4234 59.1109ZM35.4234 65.5107C35.4595 65.7046 35.5315 65.8985 35.6757 66.0149C35.8198 66.17 35.964 66.2476 36.1441 66.2476C36.2162 66.2476 36.2883 66.2476 36.2883 66.2476V66.364H35.4234V65.5107ZM39.4595 58.3351L36.2523 62.3302H35.7838L38.7387 58.3351H39.4595ZM36.3604 61.9035L39.4234 65.7434C39.5676 65.8985 39.7117 66.0149 39.8919 66.0925C40.036 66.17 40.2162 66.2088 40.4685 66.2088V66.3252H40C39.9279 66.3252 39.8198 66.3252 39.7117 66.3252C39.5676 66.3252 39.4234 66.2864 39.2793 66.2476C39.1351 66.2088 38.955 66.1313 38.8108 66.0537C38.6667 65.9761 38.5225 65.8598 38.4144 65.7046C38.1622 65.3943 37.9459 65.084 37.7297 64.8513C37.5135 64.6186 37.3333 64.3083 37.1171 64.0368C36.9009 63.7653 36.6847 63.4938 36.5045 63.2223C36.3243 62.9508 36.0721 62.6793 35.8198 62.369L36.3604 61.9035ZM40.2162 58.2576V58.3739H40.1802C39.9279 58.3739 39.7117 58.4127 39.5315 58.5291C39.3153 58.6454 39.1712 58.7618 39.027 58.9557L38.3423 58.9169C38.4505 58.8006 38.4505 58.6454 38.3784 58.5291C38.3063 58.4127 38.1982 58.3739 38.0901 58.3739H37.982V58.2576H40.2162Z" fill="white"/>
<path d="M44 65.5108C43.964 65.6659 43.9279 65.7823 43.964 65.8987C44 66.015 44.0721 66.0926 44.1441 66.1314C44.2162 66.1702 44.3243 66.209 44.3964 66.209H44.5045V66.3253H42.3423V66.209H42.4505C42.6306 66.209 42.7748 66.1702 42.955 66.0538C43.1351 65.9374 43.2793 65.7435 43.3874 65.5108H44ZM46.3423 58.1025L46.4505 58.9171L43.7478 66.3253H43.0991L45.8378 59.3049C45.9099 59.111 45.982 58.9558 46.0541 58.8007C46.0901 58.6456 46.1622 58.5292 46.1982 58.4128C46.2342 58.2965 46.2703 58.1801 46.2703 58.1413H46.3423V58.1025ZM47.8559 63.1836V63.5327H44.5045V63.1836H47.8559ZM46.3423 58.1025L49.5135 66.2865H48.6126L46.1261 59.1886L46.3423 58.1025ZM48.3243 65.5108H49.1892C49.2973 65.7823 49.4414 65.9762 49.6216 66.0538C49.8018 66.1702 49.982 66.209 50.1261 66.209H50.1982V66.3253H47.7838V66.209H47.8919C48.036 66.209 48.1441 66.1314 48.2523 66.015C48.3964 65.8987 48.3964 65.7435 48.3243 65.5108Z" fill="white"/>
<path d="M51.7117 58.0249C51.7838 58.0637 51.8919 58.1025 52.0361 58.1025C52.1802 58.1413 52.3604 58.1413 52.5406 58.18C52.7207 58.2188 52.9009 58.2188 53.0451 58.2188L51.7478 58.3352V58.0249H51.7117ZM57.946 58.2576V58.6067H51.7478V58.2576H57.946ZM52.4685 58.5679C52.2883 58.6067 52.1442 58.6843 52 58.8006C51.8919 58.917 51.8198 59.1109 51.8198 59.3049V59.4988H51.7117V58.5679H52.4685ZM54.5225 65.5107V66.364H53.6577V66.2477H53.8018C53.982 66.2477 54.1622 66.1701 54.2703 66.015C54.4144 65.8598 54.4865 65.7047 54.5225 65.5107ZM55.1712 58.2964V66.364H54.4865V58.2964H55.1712ZM55.1352 65.5107C55.1712 65.7047 55.2433 65.8986 55.3874 66.015C55.5315 66.1701 55.6757 66.2477 55.8559 66.2477H56V66.364H55.1352V65.5107ZM57.946 58.0249V58.374L56.6487 58.2576C56.7928 58.2576 56.973 58.2576 57.1532 58.2188C57.3334 58.18 57.4775 58.18 57.6577 58.1413C57.7658 58.1025 57.8739 58.0637 57.946 58.0249ZM57.946 58.5679V59.4988H57.8379V59.3049C57.8379 59.1109 57.7658 58.9558 57.6577 58.8006C57.5496 58.6843 57.3694 58.6067 57.2252 58.6067V58.5679H57.946Z" fill="white"/>
<path d="M20.0721 59.1108C20.036 58.9169 19.964 58.7229 19.8198 58.6066C19.6757 58.4902 19.5315 58.4127 19.3514 58.4127H19.2072V58.2963H20.0721V59.1108ZM20.0721 65.4718V66.3251H19.2072V66.2088H19.3514C19.5315 66.2088 19.7117 66.1312 19.8198 66.0148C19.964 65.8209 20.036 65.6658 20.0721 65.4718ZM20.7207 58.2575V66.3251H20.036V58.2575H20.7207ZM22.0901 58.2575C22.4144 58.2575 22.7027 58.2963 22.955 58.4127C23.2072 58.529 23.4234 58.6454 23.6036 58.8393C23.7838 59.0332 23.9279 59.266 24 59.4987C24.1081 59.7702 24.1442 60.0805 24.1442 60.3908C24.1442 60.7399 24.0721 61.1277 23.8919 61.438C23.7478 61.7871 23.5315 62.0586 23.2433 62.2525C22.955 62.4465 22.6667 62.5628 22.3063 62.5628C22.4144 62.6016 22.5586 62.718 22.7027 62.8731C22.8469 63.0283 22.955 63.1834 23.0631 63.3386C23.2433 63.6489 23.4234 63.8816 23.5676 64.1143C23.7117 64.347 23.8559 64.5409 24 64.7349C24.1442 64.9288 24.2883 65.1227 24.3964 65.2391C24.5405 65.3943 24.6847 65.5494 24.8288 65.7045C24.973 65.8209 25.1171 65.9373 25.2973 66.0148C25.4775 66.0924 25.6577 66.1312 25.8739 66.1312V66.2476H25.2973C24.973 66.2476 24.6847 66.2088 24.4324 66.0924C24.1802 65.9761 24 65.8597 23.8198 65.7045C23.6396 65.5494 23.5315 65.3943 23.3874 65.2391C23.3514 65.2003 23.3153 65.1227 23.2072 64.9676C23.0991 64.8125 22.991 64.6573 22.8829 64.4634C22.7387 64.2694 22.6306 64.0755 22.4865 63.8428C22.3424 63.6489 22.2342 63.4549 22.1622 63.3386C22.0541 63.1834 22.018 63.1058 22.018 63.1058C21.8739 62.9119 21.7297 62.7568 21.5856 62.5628C21.4054 62.4077 21.2613 62.3301 21.0451 62.3301V62.2137C21.2613 62.2137 21.4414 62.2137 21.6216 62.2137C21.8018 62.2137 22.018 62.175 22.2342 62.1362C22.4505 62.0974 22.6667 61.981 22.8469 61.7871C23.027 61.6319 23.1712 61.3604 23.2793 61.0114C23.3153 60.9338 23.3153 60.8174 23.3153 60.7011C23.3153 60.5847 23.3153 60.4683 23.3153 60.3132C23.3153 59.809 23.1712 59.3823 22.955 59.072C22.7027 58.7617 22.4144 58.6066 21.982 58.5678C21.7658 58.5678 21.5856 58.529 21.3694 58.5678C21.1532 58.5678 20.9009 58.5678 20.6126 58.5678C20.6126 58.5678 20.6126 58.529 20.5766 58.4514C20.5766 58.4127 20.5405 58.2963 20.5045 58.1799H22.0901V58.2575ZM20.6847 65.4718C20.7207 65.6658 20.7928 65.8597 20.9369 65.9761C21.0811 66.1312 21.2252 66.17 21.4054 66.17H21.5496V66.2863H20.7207V65.4718H20.6847Z" fill="white"/>
</g>
<defs>
<clipPath id="clip0_1_8">
<rect width="204" height="78" fill="white"/>
</clipPath>
</defs>
</svg>
